<svg width="35" height="35" viewBox="0 0 35 35" fill="none" xmlns="http://www.w3.org/2000/svg">
<path d="M17.5001 5.83332C11.0644 5.83332 5.83341 11.0818 5.83341 17.5734C5.83341 19.4143 6.25344 21.1521 7.00071 22.6989C7.35106 23.4242 7.04718 24.2961 6.32195 24.6465C5.59673 24.9968 4.72481 24.6929 4.37445 23.9677C3.44 22.0334 2.91675 19.8626 2.91675 17.5734C2.91675 9.48637 9.43827 2.91666 17.5001 2.91666C25.5619 2.91666 32.0834 9.48637 32.0834 17.5734C32.0834 19.8626 31.5602 22.0334 30.6257 23.9677C30.2754 24.6929 29.4034 24.9968 28.6782 24.6465C27.953 24.2961 27.6491 23.4242 27.9995 22.699C28.7467 21.1521 29.1667 19.4143 29.1667 17.5734C29.1667 11.0818 23.9357 5.83332 17.5001 5.83332Z" fill="white"/>
<path fill-rule="evenodd" clip-rule="evenodd" d="M21.1627 23.8064C23.3329 22.5433 24.7917 20.192 24.7917 17.5C24.7917 13.4729 21.5272 10.2083 17.5001 10.2083C13.473 10.2083 10.2084 13.4729 10.2084 17.5C10.2084 20.192 11.6672 22.5433 13.8375 23.8064C11.6053 24.4113 9.89758 25.5135 8.65895 26.6213C7.74337 27.4402 7.08569 28.2595 6.65348 28.8798C6.43684 29.1908 6.27512 29.4542 6.16451 29.6461C6.10916 29.7421 6.06645 29.8205 6.03591 29.8783C6.02064 29.9072 6.0084 29.931 5.99913 29.9493L5.98745 29.9726L5.98326 29.9811L5.98158 29.9845L5.98084 29.986C5.9805 29.9867 5.98017 29.9874 7.29175 30.625L5.98017 29.9874C5.62805 30.7118 5.92981 31.5844 6.65418 31.9366C7.37657 32.2877 8.24646 31.9886 8.60044 31.2685L8.60127 31.2668L8.61487 31.2406C8.62948 31.213 8.65489 31.1661 8.69147 31.1026C8.76473 30.9755 8.88216 30.7832 9.04655 30.5472C9.37642 30.0738 9.88844 29.4347 10.6034 28.7953C12.0193 27.5289 14.2374 26.25 17.5001 26.25C20.7627 26.25 22.9809 27.5289 24.3968 28.7953C25.1117 29.4347 25.6237 30.0738 25.9536 30.5472C26.118 30.7832 26.2354 30.9755 26.3087 31.1026C26.3453 31.1661 26.3707 31.213 26.3853 31.2406L26.3989 31.2668L26.3997 31.2684C26.7537 31.9886 27.6236 32.2877 28.346 31.9366C29.0703 31.5844 29.3721 30.7118 29.02 29.9874L27.7084 30.625C29.02 29.9874 29.0197 29.9867 29.0193 29.986L29.0169 29.9811L29.0127 29.9726L29.001 29.9493C28.9918 29.931 28.9795 29.9072 28.9643 29.8783C28.9337 29.8205 28.891 29.7421 28.8356 29.6461C28.725 29.4542 28.5633 29.1908 28.3467 28.8798C27.9145 28.2595 27.2568 27.4402 26.3412 26.6213C25.1026 25.5135 23.3949 24.4113 21.1627 23.8064ZM17.5001 21.875C19.9163 21.875 21.8751 19.9162 21.8751 17.5C21.8751 15.0837 19.9163 13.125 17.5001 13.125C15.0838 13.125 13.1251 15.0837 13.1251 17.5C13.1251 19.9162 15.0838 21.875 17.5001 21.875Z" fill="white"/>
</svg>
